<svg width="138" height="128" viewBox="0 0 138 128" fill="none" xmlns="http://www.w3.org/2000/svg">
<path d="M8.12512 29.0001C5.88945 30.5151 1.00024 30.5001 1.00015 22.5001C1.00005 14.5001 13.2502 -0.750031 23.7501 0.750053C29.2452 1.53511 32.7427 4.63884 30.8751 9.62506C29.0075 14.6113 10.3608 27.485 8.12512 29.0001Z" fill="#FFDCE5"/>
<path d="M110.295 116.056C114.83 111.521 120.586 109.19 126.851 108C128.335 108 129.876 107.5 131.476 107.5C132.707 107.5 137.273 109.283 135.976 116.028C135.3 119.542 134.056 122.033 131.42 124.514C128.879 126.906 125.954 128.222 122.462 127.695C110.295 125.858 107.124 119.227 110.295 116.056Z" fill="#FFDCE5"/>
<path d="M114.53 105.477C113.303 105.088 111.812 104.418 111.131 104.182C111.131 104.003 111.591 104.411 111.663 104.247C111.8 103.94 112.022 103.699 112.171 103.402C112.424 102.895 112.937 102.413 113.303 101.981C113.62 101.607 113.943 101.233 114.267 100.866C114.911 100.139 115.802 99.5332 116.562 98.9385C117.257 98.3945 117.871 97.7516 118.576 97.2231C119.59 96.4627 121.011 95.8437 122.287 96.3347C122.881 96.5631 122.84 96.2267 122.913 96.75C123.105 98.1479 122.748 100.952 122.104 102.24C121.46 103.528 121.239 104.701 120.065 105.477C118.962 106.205 117.683 106.01 116.454 105.815C115.811 105.713 115.171 105.572 114.53 105.477Z" fill="#E85F82"/>
<mask id="mask0" mask-type="alpha" maskUnits="userSpaceOnUse" x="0" y="11" width="138" height="98">
<path d="M133.971 50.1573C108.733 0.375034 42.9986 3.27832 14.7501 35.0001C-0.493596 52.118 -5.88449 81.218 11.2501 96.5001C24.501 108.318 38.4547 107.073 58.7187 107.349C72.3594 107.535 91.9477 109.449 103.175 107.349C135.36 101.329 144.183 70.2992 133.971 50.1573Z" fill="#F6D4DD"/>
</mask>
<g mask="url(#mask0)">
<path d="M134.167 50.1573C110.155 0.375038 43.3752 3.02832 16.5 34.7501C1.99748 51.868 -3.0514 83.968 13.2501 99.2501C25.8568 111.068 43.2945 107.073 62.5733 107.349C75.5508 107.535 94.1867 109.449 104.869 107.349C135.489 101.329 143.882 70.2992 134.167 50.1573Z" fill="#F6D4DD"/>
<path d="M63.3146 63.0287C63.4239 62.1276 64.1262 61.4132 65.0253 61.2885L69.4468 60.6753C70.7598 60.4932 71.8834 61.6155 71.7029 62.9286L70.1181 74.4592C69.9672 75.5575 68.9517 76.3234 67.8543 76.1669L63.764 75.5834C62.6867 75.4297 61.93 74.4429 62.061 73.3626L63.3146 63.0287Z" fill="#9B98BF"/>
<path d="M70.4232 62.9211C70.217 63.1543 69.8607 63.1762 69.6274 62.97C69.3942 62.7637 69.3723 62.4074 69.5786 62.1742C69.7848 61.9409 70.1411 61.919 70.3743 62.1253C70.6076 62.3315 70.6295 62.6878 70.4232 62.9211Z" fill="#565656"/>
<path d="M61.8511 70.9878C61.5512 74.5647 62.3142 77.4632 61.5725 79.8236L65.4586 82.635C68.9685 78.3667 70.6308 75.0125 70.8925 71.1696C71.1124 67.9408 69.7261 66.2287 68.2005 67.8864C66.2952 69.9566 66.2007 71.2966 64.5357 74.1359C64.0918 74.893 63.7056 74.6869 63.4888 73.7708L62.8534 70.9174C62.6655 69.9863 61.8737 69.6611 61.8511 70.9878Z" fill="#E4A591"/>
<path d="M55.7088 57.972C56.5771 56.7564 52.7566 56.2933 52.004 46.5684C42.7422 45.5264 35.217 48.0155 33.0173 59.6507C31.8017 64.3974 30.7597 66.3655 28.3864 67.7548L42.5107 78.1743C42.0476 73.3119 41.5266 70.4754 44.363 66.3655C48.1257 67.2917 51.4252 66.6549 52.525 63.5291L53.4512 59.9401C54.4459 59.2167 54.8405 59.1876 55.7088 57.972Z" fill="#E4A591"/>
<path d="M34.3487 62.545C37.243 65.0341 41.4687 61.6188 39.6163 58.8403C34.0014 56.5248 38.5165 47.3788 43.3211 53.862C45.4628 55.1934 48.6466 51.836 46.2154 48.9996C48.6466 51.6045 54.8983 49.8679 53.7406 45.1791C60.166 44.7739 59.0661 35.3384 54.3195 35.3384C55.1299 32.9072 51.483 30.5338 48.6466 32.4441C48.6466 24.861 37.243 24.1663 34.8696 30.939C29.1389 26.9449 22.0189 31.981 25.1447 38.8116C18.0826 37.2487 15.3041 47.6682 22.0189 50.1573C15.1883 53.862 19.8192 64.6868 27.3444 62.0819C27.3444 65.7287 33.7698 66.4813 34.3487 62.545Z" fill="#3B339B"/>
<path d="M12.2939 100.518C12.2939 91.3724 26.1976 66.2741 28.6178 67.7548C41.5 71 45.125 82.375 51.375 91.625C54.9375 86.875 57.375 84.25 61.625 79.625L65.9375 82.25C63.9375 92.25 59.75 98 54.875 104C50 103.25 48.25 102.125 45.125 100.518C44.0851 105.627 43.782 106.755 42.7421 111.864C31.5122 111.864 22.2503 107.696 12.2939 100.518Z" fill="#FF80A1"/>
<path fill-rule="evenodd" clip-rule="evenodd" d="M34.0195 92.8329C34.2885 92.5553 34.7316 92.5482 35.0093 92.8172C38.6562 96.3501 41.3753 98.1643 45.8401 100.454C46.1841 100.63 46.3199 101.052 46.1435 101.396C45.9671 101.74 45.5452 101.876 45.2012 101.7C40.6357 99.3583 37.7978 97.4678 34.0352 93.8228C33.7575 93.5538 33.7505 93.1106 34.0195 92.8329Z" fill="#D55E7D"/>
<path d="M79.3264 32.5599C71.8634 42.3325 77.7055 57.2195 85.6939 67.8705L122.857 91.7197C124.709 90.562 126.531 88.6354 127.951 85.8153C136.518 68.7967 107.575 62.1977 108.501 50.7362C108.501 41.7059 105.213 34.7284 100.976 31.7494C93.5664 26.5397 84.1889 26.1924 79.3264 32.5599Z" fill="#FF5845"/>
<path d="M106.185 65.9024C96.8078 63.9343 92.7815 65.3798 84.5359 69.144C79.2104 71.5753 75.2741 76.2062 73.306 81.7633C70.774 88.9127 71.2221 98.3188 72.264 108.391C91.9455 108.97 102.249 108.391 122.394 103.297C123.783 94.0352 123.824 81.3002 119.268 74.7011C115.91 69.8387 112.115 67.1468 106.185 65.9024Z" fill="#E85F82"/>
<path d="M89.5143 68.9125C89.5143 66.5163 89.5143 64.571 88.7618 62.4871L96.6922 54.4409C97.2132 59.998 98.7182 63.6448 102.481 65.4972C101.092 70.3018 93.2769 74.5854 89.5143 68.9125Z" fill="#FBA09E"/>
<path d="M86.3885 62.1977C81.8733 58.3193 80.7735 54.904 78.979 48.1313C81.8733 46.4526 83.8994 43.2688 84.1888 38.6379C87.8935 43.7319 90.1511 44.3687 95.3609 45.4685C100.629 42.0532 100.918 51.7781 97.5027 52.357C97.0958 55.1601 96.6344 56.6406 95.3609 58.7245C93.5892 61.6236 89.3317 64.7258 86.3885 62.1977Z" fill="#FFBEB4"/>
<path fill-rule="evenodd" clip-rule="evenodd" d="M82.5443 86.1559C82.7604 86.3279 82.7962 86.6424 82.6243 86.8585C80.3316 89.7406 79.4858 92.2938 79.43 94.5839C79.374 96.884 80.1132 98.9766 81.0944 100.94C81.5852 101.922 82.1313 102.862 82.6645 103.779L82.6717 103.792C83.199 104.699 83.7163 105.589 84.135 106.452C84.9706 108.173 85.4784 109.911 84.8118 111.62C84.7114 111.877 84.4215 112.005 84.1643 111.904C83.907 111.804 83.7798 111.514 83.8801 111.257C84.3873 109.956 84.0437 108.553 83.2354 106.888C82.8341 106.062 82.3341 105.201 81.7999 104.282L81.7978 104.278C81.2676 103.366 80.7064 102.401 80.1998 101.387C79.1851 99.3564 78.3687 97.093 78.4303 94.5596C78.4923 92.0161 79.4374 89.2583 81.8417 86.236C82.0137 86.0199 82.3282 85.984 82.5443 86.1559Z" fill="#FFAEC3"/>
<path d="M77.851 81.6775C77.1353 80.6575 77.5163 79.2385 78.6467 78.7142L82.535 76.911C83.4201 76.5005 84.4722 76.7886 85.0247 77.5926L90.8878 86.1243C91.5221 87.0474 91.2748 88.3114 90.3394 88.9274L86.8995 91.1927C85.9962 91.7875 84.7837 91.5565 84.1624 90.6712L77.851 81.6775Z" fill="white"/>
<path d="M84.1045 78.4227C84.1045 78.734 83.8521 78.9864 83.5408 78.9864C83.2294 78.9864 82.977 78.734 82.977 78.4227C82.977 78.1113 83.2294 77.8589 83.5408 77.8589C83.8521 77.8589 84.1045 78.1113 84.1045 78.4227Z" fill="#858585"/>
<path d="M89.3809 82.8342C92.1686 85.5818 93.5949 88.5226 95.8845 89.9496L94.664 95.0356C88.7285 93.9946 84.9714 92.3985 82.0264 89.4036C79.5522 86.8873 79.4841 84.486 81.9236 84.7749C84.9704 85.1358 86 86.1778 89.3938 87.3458C90.2988 87.6572 90.4721 87.2125 90.0012 86.3003L88.5013 83.4875C87.9958 82.5835 88.4202 81.7521 89.3809 82.8342Z" fill="#FFBEB4"/>
<path fill-rule="evenodd" clip-rule="evenodd" d="M109.148 79.7605C109.423 79.7343 109.667 79.9359 109.693 80.2108C110.089 84.3616 110.963 86.8549 111.99 89.7822C112.452 91.0983 112.945 92.5022 113.438 94.1838C113.496 94.3814 113.427 94.5943 113.264 94.7203C113.101 94.8462 112.878 94.8593 112.701 94.7534C110.733 93.5727 108.093 92.6318 105.223 91.8097C103.176 91.2232 101.038 90.7042 98.9656 90.2011C98.2591 90.0296 97.5602 89.8599 96.8752 89.6901C96.3088 90.665 95.9676 91.4143 95.6998 92.255C95.4201 93.1329 95.2173 94.1195 94.9326 95.5888C95.4456 95.9121 95.945 96.2281 96.4333 96.537C102.192 100.18 106.422 102.856 113.41 105.255C113.671 105.345 113.81 105.629 113.721 105.891C113.631 106.152 113.347 106.291 113.085 106.201C105.982 103.763 101.661 101.028 95.905 97.3863C95.323 97.0179 94.7262 96.6403 94.1105 96.2528C93.936 96.143 93.8468 95.9374 93.8858 95.7349C94.2027 94.0932 94.4251 92.962 94.747 91.9515C95.0731 90.9276 95.4974 90.0379 96.2056 88.8576C96.3188 88.6689 96.5421 88.5764 96.7556 88.6298C97.5417 88.8263 98.3541 89.0235 99.1808 89.2242C101.26 89.7291 103.43 90.2559 105.498 90.8483C107.906 91.538 110.213 92.3261 112.121 93.2934C111.771 92.1876 111.419 91.1837 111.079 90.2147C110.034 87.2326 109.105 84.5808 108.698 80.3056C108.672 80.0307 108.873 79.7867 109.148 79.7605Z" fill="#FFE8EE"/>
</g>
<path fill-rule="evenodd" clip-rule="evenodd" d="M23.75 3.98288C22.0931 3.98288 20.75 5.32603 20.75 6.98288V20.2329C20.75 21.8897 22.0931 23.2329 23.75 23.2329H28.4254L30.5273 26.3912L32.358 23.2329H62.625C64.2819 23.2329 65.625 21.8897 65.625 20.2329V6.98288C65.625 5.32603 64.2819 3.98288 62.625 3.98288H23.75Z" fill="white"/>
<path fill-rule="evenodd" clip-rule="evenodd" d="M82.8812 9.93311C81.2244 9.93311 79.8812 11.2763 79.8812 12.9331V20.5593C79.8812 22.2162 81.2244 23.5593 82.8812 23.5593H103.274L105.159 26.3912L106.8 23.5593H108.131C109.788 23.5593 111.131 22.2162 111.131 20.5593V12.9331C111.131 11.2763 109.788 9.93311 108.131 9.93311H82.8812Z" fill="white"/>
<path fill-rule="evenodd" clip-rule="evenodd" d="M25.9375 9.93292C25.9375 9.46815 26.3143 9.09137 26.7791 9.09137H59.5959C60.0607 9.09137 60.4375 9.46815 60.4375 9.93292C60.4375 10.3977 60.0607 10.7745 59.5959 10.7745H26.7791C26.3143 10.7745 25.9375 10.3977 25.9375 9.93292ZM25.9375 13.6077C25.9375 13.143 26.3143 12.7662 26.7791 12.7662H59.5959C60.0607 12.7662 60.4375 13.143 60.4375 13.6077C60.4375 14.0725 60.0607 14.4493 59.5959 14.4493H26.7791C26.3143 14.4493 25.9375 14.0725 25.9375 13.6077ZM26.7791 16.4413C26.3143 16.4413 25.9375 16.8181 25.9375 17.2828C25.9375 17.7476 26.3143 18.1244 26.7791 18.1244H41.9709C42.4357 18.1244 42.8125 17.7476 42.8125 17.2828C42.8125 16.8181 42.4357 16.4413 41.9709 16.4413H26.7791Z" fill="#E1E0ED"/>
<path fill-rule="evenodd" clip-rule="evenodd" d="M83.8165 14.0671C83.3518 14.0671 82.975 14.4439 82.975 14.9087C82.975 15.3734 83.3518 15.7502 83.8165 15.7502H107.196C107.661 15.7502 108.037 15.3734 108.037 14.9087C108.037 14.4439 107.661 14.0671 107.196 14.0671H83.8165ZM96.6202 17.7422C96.1554 17.7422 95.7786 18.119 95.7786 18.5838C95.7786 19.0485 96.1554 19.4253 96.6202 19.4253H107.196C107.661 19.4253 108.037 19.0485 108.037 18.5838C108.037 18.119 107.661 17.7422 107.196 17.7422H96.6202Z" fill="#E1E0ED"/>
</svg>
